<svg preserveAspectRatio="none" width="100%" height="100%" overflow="visible" style="display: block;" viewBox="0 0 16.6691 14.9679" fill="none" xmlns="http://www.w3.org/2000/svg">
<path id="handshake" d="M8.07141 14.1346C8.1803 14.1346 8.2919 14.11 8.4062 14.0608C8.52051 14.0118 8.61294 13.952 8.6835 13.8815L15.1804 7.38458C15.3897 7.17528 15.5513 6.96111 15.6652 6.74208C15.7789 6.52306 15.8358 6.28264 15.8358 6.02083C15.8358 5.75583 15.7789 5.49861 15.6652 5.24917C15.5513 4.99972 15.3897 4.77188 15.1804 4.56563L12.0554 1.44063C11.8491 1.23132 11.6373 1.07778 11.42 0.980001C11.2025 0.882223 10.9613 0.833333 10.6964 0.833333C10.4346 0.833333 10.1916 0.882223 9.96725 0.980001C9.7428 1.07778 9.53127 1.23132 9.33266 1.44063L8.60662 2.16667L10.1483 3.71313C10.3138 3.87549 10.4372 4.06035 10.5185 4.26771C10.5996 4.47493 10.6402 4.68535 10.6402 4.89896C10.6402 5.33285 10.4984 5.6916 10.2147 5.97521C9.93113 6.25882 9.57245 6.40063 9.1387 6.40063C8.92495 6.40063 8.71634 6.36806 8.51287 6.30292C8.3094 6.23778 8.12641 6.12396 7.96391 5.96146L6.73808 4.74042C6.64183 4.64431 6.51891 4.59625 6.36933 4.59625C6.21988 4.59625 6.09704 4.64431 6.00079 4.74042L2.77162 7.96958C2.68731 8.05403 2.62405 8.14993 2.58183 8.25729C2.53961 8.36465 2.5185 8.47278 2.5185 8.58167C2.5185 8.77833 2.58155 8.94049 2.70766 9.06813C2.83363 9.19576 2.99495 9.25958 3.19162 9.25958C3.30051 9.25958 3.41211 9.235 3.52641 9.18583C3.64072 9.13681 3.73315 9.07701 3.8037 9.00646L6.14995 6.66021C6.22787 6.58229 6.32266 6.53986 6.43433 6.53292C6.546 6.52597 6.64773 6.5684 6.73954 6.66021C6.82829 6.74896 6.87266 6.84729 6.87266 6.95521C6.87266 7.06313 6.82829 7.16139 6.73954 7.25L4.39829 9.59625C4.31384 9.68056 4.25051 9.77639 4.20829 9.88375C4.1662 9.99111 4.14516 10.0993 4.14516 10.2083C4.14516 10.3943 4.21086 10.553 4.34225 10.6844C4.47363 10.8158 4.63225 10.8815 4.81808 10.8815C4.92711 10.8815 5.03877 10.8569 5.15308 10.8077C5.26738 10.7585 5.35981 10.6987 5.43037 10.6281L7.9687 8.09458C8.04676 8.01653 8.14162 7.97403 8.25329 7.96708C8.36495 7.96014 8.46669 8.00264 8.55849 8.09458C8.64724 8.18319 8.69162 8.28146 8.69162 8.38938C8.69162 8.49729 8.64724 8.59563 8.55849 8.68438L6.02495 11.2227C5.9512 11.2933 5.89058 11.3857 5.84308 11.5C5.79544 11.6143 5.77162 11.726 5.77162 11.835C5.77162 12.0208 5.83731 12.1794 5.9687 12.3108C6.10023 12.4424 6.25891 12.5081 6.44475 12.5081C6.55377 12.5081 6.66197 12.487 6.76933 12.4448C6.87669 12.4026 6.97252 12.3392 7.05683 12.2548L9.59537 9.72125C9.67343 9.64319 9.76822 9.60069 9.87975 9.59375C9.99141 9.58681 10.0932 9.62931 10.1852 9.72125C10.2738 9.80986 10.3181 9.90813 10.3181 10.016C10.3181 10.124 10.2738 10.2222 10.1852 10.3108L7.64662 12.8494C7.56231 12.9338 7.49905 13.0351 7.45683 13.1531C7.41461 13.2712 7.3935 13.3793 7.3935 13.4775C7.3935 13.6742 7.46266 13.8328 7.601 13.9535C7.73933 14.0742 7.89613 14.1346 8.07141 14.1346ZM8.06662 14.9679C7.63815 14.9679 7.27141 14.8112 6.96641 14.4977C6.66141 14.1841 6.52759 13.797 6.56495 13.3365C6.09273 13.3419 5.69954 13.2009 5.38537 12.9135C5.07134 12.626 4.92231 12.2249 4.93829 11.71C4.42343 11.7153 4.01773 11.5681 3.7212 11.2685C3.42468 10.9688 3.28981 10.5738 3.31662 10.0833C2.85287 10.0888 2.46502 9.9584 2.15308 9.69229C1.84113 9.42632 1.68516 9.05611 1.68516 8.58167C1.68516 8.36806 1.72655 8.15417 1.80933 7.94C1.89211 7.72569 2.01468 7.53736 2.17704 7.375L5.42225 4.12979C5.67766 3.87451 5.99259 3.74688 6.36704 3.74688C6.74148 3.74688 7.05641 3.87451 7.31183 4.12979L8.52162 5.33979C8.59218 5.41354 8.67926 5.47417 8.78287 5.52167C8.88648 5.56917 9.0035 5.59292 9.13391 5.59292C9.31225 5.59292 9.46982 5.53069 9.60662 5.40625C9.74343 5.28181 9.81183 5.11965 9.81183 4.91979C9.81183 4.78951 9.78801 4.67257 9.74037 4.56896C9.69287 4.46535 9.63225 4.37826 9.5585 4.30771L6.69162 1.44063C6.48537 1.23132 6.27086 1.07778 6.04808 0.980001C5.8253 0.882223 5.58148 0.833333 5.31662 0.833333C5.05481 0.833333 4.81711 0.882223 4.6035 0.980001C4.38975 1.07778 4.17815 1.23132 3.9687 1.44063L1.43183 3.98229C1.14127 4.27299 0.954329 4.62771 0.870995 5.04646C0.787662 5.46535 0.825579 5.86549 0.984745 6.24688C1.01572 6.35479 1.00183 6.45896 0.943079 6.55938C0.884329 6.65979 0.800995 6.72389 0.693079 6.75167C0.585162 6.77944 0.478357 6.76472 0.372662 6.7075C0.266829 6.65042 0.200023 6.56792 0.172245 6.46C-0.00719909 5.92153 -0.0464352 5.37743 0.054537 4.82771C0.155509 4.27799 0.416481 3.79271 0.837454 3.37188L3.35829 0.851042C3.64884 0.563542 3.95627 0.349861 4.28058 0.21C4.60475 0.0700004 4.95544 0 5.33266 0C5.70975 0 6.05773 0.0700004 6.37662 0.21C6.69551 0.349861 6.99863 0.563542 7.286 0.851042L8.01204 1.57688L8.73808 0.851042C9.02863 0.563542 9.33336 0.349861 9.65225 0.21C9.97113 0.0700004 10.3192 0 10.6964 0C11.0735 0 11.4242 0.0700004 11.7485 0.21C12.0727 0.349861 12.3785 0.563542 12.666 0.851042L15.7702 3.95521C16.0575 4.24257 16.2792 4.56521 16.4352 4.92312C16.5911 5.28104 16.6691 5.64854 16.6691 6.02563C16.6691 6.40285 16.5911 6.7509 16.4352 7.06979C16.2792 7.38868 16.0575 7.69181 15.7702 7.97917L9.27329 14.4712C9.10023 14.6443 8.9119 14.7703 8.70829 14.8494C8.50481 14.9284 8.29093 14.9679 8.06662 14.9679Z" fill="var(--fill-0, #1C1B1F)"/>
</svg>
