<svg preserveAspectRatio="none" width="100%" height="100%" overflow="visible" style="display: block;" viewBox="0 0 13.3333 13.3333" fill="none" xmlns="http://www.w3.org/2000/svg">
<path id="article" d="M1.34625 13.3333C0.962639 13.3333 0.642361 13.2049 0.385417 12.9479C0.128472 12.691 0 12.3707 0 11.9871V1.34625C0 0.962639 0.128472 0.642361 0.385417 0.385417C0.642361 0.128472 0.962639 0 1.34625 0H11.9871C12.3707 0 12.691 0.128472 12.9479 0.385417C13.2049 0.642361 13.3333 0.962639 13.3333 1.34625V11.9871C13.3333 12.3707 13.2049 12.691 12.9479 12.9479C12.691 13.2049 12.3707 13.3333 11.9871 13.3333H1.34625ZM1.34625 12.5H11.9871C12.1154 12.5 12.233 12.4466 12.3398 12.3398C12.4466 12.233 12.5 12.1154 12.5 11.9871V1.34625C12.5 1.21792 12.4466 1.10035 12.3398 0.993542C12.233 0.886736 12.1154 0.833333 11.9871 0.833333H1.34625C1.21792 0.833333 1.10035 0.886736 0.993542 0.993542C0.886736 1.10035 0.833333 1.21792 0.833333 1.34625V11.9871C0.833333 12.1154 0.886736 12.233 0.993542 12.3398C1.10035 12.4466 1.21792 12.5 1.34625 12.5ZM3.33333 10.4167H7.5C7.61861 10.4167 7.71771 10.3769 7.79729 10.2973C7.87688 10.2177 7.91667 10.1186 7.91667 10C7.91667 9.88139 7.87688 9.78229 7.79729 9.70271C7.71771 9.62313 7.61861 9.58333 7.5 9.58333H3.33333C3.21472 9.58333 3.11563 9.62313 3.03604 9.70271C2.95646 9.78229 2.91667 9.88139 2.91667 10C2.91667 10.1186 2.95646 10.2177 3.03604 10.2973C3.11563 10.3769 3.21472 10.4167 3.33333 10.4167ZM3.33333 7.08333H10C10.1186 7.08333 10.2177 7.04354 10.2973 6.96396C10.3769 6.88437 10.4167 6.78528 10.4167 6.66667C10.4167 6.54806 10.3769 6.44896 10.2973 6.36938C10.2177 6.28979 10.1186 6.25 10 6.25H3.33333C3.21472 6.25 3.11563 6.28979 3.03604 6.36938C2.95646 6.44896 2.91667 6.54806 2.91667 6.66667C2.91667 6.78528 2.95646 6.88437 3.03604 6.96396C3.11563 7.04354 3.21472 7.08333 3.33333 7.08333ZM3.33333 3.75H10C10.1186 3.75 10.2177 3.71021 10.2973 3.63063C10.3769 3.55104 10.4167 3.45194 10.4167 3.33333C10.4167 3.21472 10.3769 3.11562 10.2973 3.03604C10.2177 2.95646 10.1186 2.91667 10 2.91667H3.33333C3.21472 2.91667 3.11563 2.95646 3.03604 3.03604C2.95646 3.11562 2.91667 3.21472 2.91667 3.33333C2.91667 3.45194 2.95646 3.55104 3.03604 3.63063C3.11563 3.71021 3.21472 3.75 3.33333 3.75Z" fill="var(--fill-0, #1C1B1F)"/>
</svg>
