<svg preserveAspectRatio="none" width="100%" height="100%" overflow="visible" style="display: block;" viewBox="0 0 236.948 236.948" fill="none" xmlns="http://www.w3.org/2000/svg">
<path id="donut" d="M149.243 4.06554C178.777 12.0084 204.095 31.0646 219.901 57.2473C235.706 83.43 240.774 114.711 234.044 144.544C227.314 174.378 209.308 200.454 183.793 217.315C158.277 234.177 127.23 240.518 97.146 235.012C67.0623 229.506 40.2731 212.58 22.3835 187.775C4.4938 162.97 -3.11029 132.207 1.16215 101.924C5.43458 71.6401 21.2525 44.1819 45.3065 25.2941C69.3604 6.40618 99.7867 -2.44802 130.219 0.583959L123.76 65.4235C110.065 64.0591 96.373 68.0435 85.5487 76.5431C74.7244 85.0426 67.6064 97.3988 65.6838 111.026C63.7612 124.654 67.183 138.497 75.2334 149.659C83.2837 160.822 95.3388 168.439 108.877 170.916C122.414 173.394 136.386 170.54 147.867 162.953C159.349 155.365 167.452 143.631 170.481 130.206C173.509 116.781 171.228 102.704 164.116 90.922C157.004 79.1398 145.61 70.5645 132.32 66.9902L149.243 4.06554Z" fill="var(--fill-0, #4FEDBD)"/>
</svg>
