<svg preserveAspectRatio="none" width="100%" height="100%" overflow="visible" style="display: block;" viewBox="0 0 37.1229 39.9992" fill="none" xmlns="http://www.w3.org/2000/svg">
<g id="Group">
<path id="Vector" d="M21.5764 20.0037L1.48938 39.3462C1.02619 39.0297 0.648038 38.604 0.388312 38.1067C0.128586 37.6094 -0.0047307 37.0558 0.000128229 36.4948V3.51267C-0.0047307 2.95166 0.128586 2.39809 0.388312 1.90081C0.648038 1.40352 1.02619 0.977819 1.48938 0.661272L21.5764 20.0037Z" fill="var(--fill-0, #2196F3)"/>
<path id="Vector_2" d="M28.606 13.2473L21.5773 20.0035L1.49023 0.661061C1.56595 0.602391 1.64475 0.547827 1.72631 0.497604C2.24771 0.181595 2.8438 0.00999887 3.45341 0.000423892C4.06302 -0.00915108 4.6642 0.14364 5.19527 0.443118L28.606 13.2473Z" fill="var(--fill-0, #4CAF50)"/>
<path id="Vector_3" d="M37.1228 20.0043C37.1292 20.6354 36.9635 21.2563 36.6435 21.8003C36.3235 22.3443 35.8613 22.7908 35.3066 23.0918L28.6048 26.7605L21.5762 20.0043L28.6048 13.248L35.3066 16.9167C35.8613 17.2178 36.3235 17.6643 36.6435 18.2083C36.9635 18.7523 37.1292 19.3732 37.1228 20.0043Z" fill="var(--fill-0, #FFC107)"/>
<path id="Vector_4" d="M28.604 26.759L5.19332 39.5632C4.6608 39.8582 4.06025 40.0084 3.45157 39.9988C2.84289 39.9892 2.24735 39.8203 1.72436 39.5087C1.6428 39.4585 1.56399 39.4039 1.48828 39.3452L21.5754 20.0028L28.604 26.759Z" fill="var(--fill-0, #F44336)"/>
</g>
</svg>
