<svg preserveAspectRatio="none" width="100%" height="100%" overflow="visible" style="display: block;" viewBox="0 0 40 40.1096" fill="none" xmlns="http://www.w3.org/2000/svg">
<g id="Group">
<path id="Vector" d="M19.5 0H21.2512C36.3301 0.979768 44.9883 17.8318 36.9138 30.7647C29.4229 42.7179 12.3011 43.3058 3.93469 31.9404C-5.69636 18.9095 3.44827 0.391907 19.5 0ZM13.7604 9.79768C13.5658 9.79768 13.3713 9.99364 13.274 10.0916C12.3984 11.1694 11.1337 12.0512 10.2581 13.1289C9.38255 14.2066 9.86897 16.1662 10.2581 17.3419C11.9119 22.4367 18.2353 28.7072 23.3914 30.0789C24.5588 30.3728 26.0181 30.6667 26.9909 29.785C28.061 28.9032 28.9366 27.7274 30.0067 26.7477C30.3958 26.2578 30.2986 25.6699 29.8121 25.278C28.3529 24.4942 26.9909 23.4165 25.6289 22.7306C24.1697 22.0448 23.6832 23.5144 22.8077 24.2003C22.5158 24.3962 22.224 24.2982 21.9321 24.2003C19.9864 23.5144 16.8734 20.2812 15.9978 18.3217C15.9006 18.1257 15.706 17.5378 15.8033 17.3419C16.2897 16.6561 17.4571 16.0682 17.3598 15.0884C17.3598 14.8925 17.2626 14.6965 17.1653 14.5006C16.4843 13.1289 15.6087 11.6592 14.9278 10.2876C14.5386 9.99363 14.2468 9.6997 13.7604 9.79768Z" fill="var(--fill-0, #007450)"/>
</g>
</svg>
