<svg preserveAspectRatio="none" width="100%" height="100%" overflow="visible" style="display: block;" viewBox="0 0 24 24" fill="none" xmlns="http://www.w3.org/2000/svg">
<g id="check">
<mask id="mask0_8171_86200" style="mask-type:alpha" maskUnits="userSpaceOnUse" x="0" y="0" width="24" height="24">
<rect id="Bounding box" width="24" height="24" fill="var(--fill-0, #D9D9D9)"/>
</mask>
<g mask="url(#mask0_8171_86200)">
<path id="check_2" d="M9.55 15.8808L18.352 7.07875C18.4493 6.98142 18.5641 6.9295 18.6962 6.923C18.8282 6.91667 18.9493 6.96858 19.0595 7.07875C19.1698 7.18908 19.225 7.308 19.225 7.4355C19.225 7.56317 19.1698 7.68208 19.0595 7.79225L10.1155 16.7423C9.95383 16.9038 9.76533 16.9845 9.55 16.9845C9.33467 16.9845 9.14617 16.9038 8.9845 16.7423L4.9345 12.6923C4.83717 12.5949 4.78625 12.4793 4.78175 12.3453C4.77725 12.2113 4.83017 12.0891 4.9405 11.9788C5.05067 11.8686 5.1695 11.8135 5.297 11.8135C5.42467 11.8135 5.54358 11.8686 5.65375 11.9788L9.55 15.8808Z" fill="var(--fill-0, #1C1B1F)"/>
</g>
</g>
</svg>
