<svg preserveAspectRatio="none" width="100%" height="100%" overflow="visible" style="display: block;" viewBox="0 0 14.9952 15" fill="none" xmlns="http://www.w3.org/2000/svg">
<path id="loyalty" d="M14.5963 9.29479L9.29479 14.5963C9.15868 14.7308 9.00556 14.8317 8.83542 14.899C8.66528 14.9663 8.49604 15 8.32771 15C8.15951 15 7.99125 14.9663 7.82292 14.899C7.65458 14.8317 7.50313 14.7308 7.36854 14.5963L0.398958 7.64271C0.267569 7.52188 0.168264 7.37799 0.101042 7.21104C0.0336805 7.0441 0 6.86854 0 6.68437V1.36208C0 0.9875 0.131111 0.666875 0.393333 0.400209C0.655695 0.133403 0.978611 0 1.36208 0H6.68438C6.86451 0 7.0391 0.0364583 7.20813 0.109375C7.37715 0.182292 7.52361 0.280417 7.6475 0.40375L14.5963 7.35729C14.735 7.49354 14.8362 7.64674 14.8998 7.81687C14.9634 7.98701 14.9952 8.15819 14.9952 8.33042C14.9952 8.50264 14.9634 8.67201 14.8998 8.83854C14.8362 9.00493 14.735 9.15701 14.5963 9.29479ZM8.70042 14.0065L14.0017 8.70521C14.1085 8.59826 14.1619 8.47271 14.1619 8.32854C14.1619 8.18424 14.1085 8.05868 14.0017 7.95188L6.88792 0.849375H1.36208C1.21264 0.849375 1.08715 0.897431 0.985625 0.993542C0.884097 1.08979 0.833333 1.21264 0.833333 1.36208V6.67958C0.833333 6.74361 0.844028 6.80771 0.865417 6.87187C0.886805 6.9359 0.924167 6.99465 0.9775 7.04813L7.94708 14.0065C8.05389 14.1133 8.17944 14.1667 8.32375 14.1667C8.46792 14.1667 8.59347 14.1133 8.70042 14.0065ZM2.95813 3.79813C3.19229 3.79813 3.39083 3.71708 3.55375 3.555C3.71667 3.39292 3.79813 3.19618 3.79813 2.96479C3.79813 2.72882 3.71708 2.52826 3.555 2.36312C3.39292 2.19799 3.19618 2.11542 2.96479 2.11542C2.72882 2.11542 2.52826 2.19736 2.36312 2.36125C2.19799 2.52514 2.11542 2.7241 2.11542 2.95812C2.11542 3.19229 2.19736 3.39083 2.36125 3.55375C2.52514 3.71667 2.7241 3.79813 2.95813 3.79813ZM8.82042 11.0994L10.8654 8.97437C10.9861 8.85368 11.0783 8.71319 11.1419 8.55292C11.2053 8.39264 11.2371 8.21583 11.2371 8.0225C11.2371 7.66778 11.1111 7.35847 10.8592 7.09458C10.6071 6.83069 10.3025 6.69875 9.94542 6.69875C9.67431 6.69875 9.40674 6.76979 9.14271 6.91187C8.87882 7.05396 8.60903 7.30556 8.33333 7.66667C8.04486 7.29917 7.77208 7.04597 7.515 6.90708C7.25792 6.76819 6.99333 6.69875 6.72125 6.69875C6.36417 6.69875 6.05958 6.83069 5.8075 7.09458C5.55556 7.35847 5.42958 7.66778 5.42958 8.0225C5.42958 8.21583 5.46132 8.39264 5.52479 8.55292C5.5884 8.71319 5.68056 8.85368 5.80125 8.97437L7.84625 11.0994C7.98083 11.234 8.14319 11.3012 8.33333 11.3012C8.52347 11.3012 8.68583 11.234 8.82042 11.0994Z" fill="var(--fill-0, #1C1B1F)"/>
</svg>
