<svg preserveAspectRatio="none" width="100%" height="100%" overflow="visible" style="display: block;" viewBox="0 0 16.6667 12.765" fill="none" xmlns="http://www.w3.org/2000/svg">
<path id="book_ribbon" d="M7.91667 11.7571V3.58083C7.31514 3.15125 6.65222 2.82909 5.92792 2.61437C5.20347 2.39965 4.4775 2.29229 3.75 2.29229C3.25 2.29229 2.81222 2.32222 2.43667 2.38208C2.06111 2.44194 1.64417 2.55305 1.18583 2.71541C1.05764 2.75819 0.966875 2.81965 0.913542 2.89979C0.860069 2.97979 0.833333 3.06791 0.833333 3.16416V10.6769C0.833333 10.8265 0.886736 10.936 0.993542 11.0054C1.10035 11.0749 1.21792 11.0829 1.34625 11.0296C1.65069 10.9269 2.00243 10.8446 2.40146 10.7827C2.80049 10.7208 3.25 10.6898 3.75 10.6898C4.47667 10.6898 5.18396 10.7734 5.87188 10.9406C6.55979 11.1078 7.24139 11.38 7.91667 11.7571ZM0 11.0712V3.01666C0 2.81041 0.0542361 2.61916 0.162708 2.44291C0.271181 2.26666 0.423125 2.14382 0.618542 2.07437C1.10785 1.85854 1.61694 1.70201 2.14583 1.60479C2.67472 1.50757 3.20944 1.45896 3.75 1.45896C4.66028 1.45896 5.46847 1.57437 6.17458 1.80521C6.88083 2.0359 7.60257 2.37826 8.33979 2.83229C8.47118 2.90507 8.57236 3.00229 8.64333 3.12396C8.71444 3.24576 8.75 3.38632 8.75 3.54562V11.7571C9.42528 11.38 10.1069 11.1078 10.7948 10.9406C11.4827 10.7734 12.19 10.6898 12.9167 10.6898C13.4167 10.6898 13.8662 10.7208 14.2652 10.7827C14.6642 10.8446 15.016 10.9269 15.3204 11.0296C15.4488 11.0829 15.5663 11.0749 15.6731 11.0054C15.7799 10.936 15.8333 10.8265 15.8333 10.6769V2.40291C15.8333 2.28486 15.8733 2.1859 15.9533 2.10604C16.0333 2.02618 16.1324 1.98625 16.2506 1.98625C16.3688 1.98625 16.4677 2.02618 16.5473 2.10604C16.6269 2.1859 16.6667 2.28486 16.6667 2.40291V11.0712C16.6667 11.4168 16.5233 11.6797 16.2365 11.86C15.9495 12.0403 15.6442 12.0701 15.3204 11.9494C14.9349 11.7998 14.5417 11.6913 14.141 11.624C13.7403 11.5567 13.3322 11.5231 12.9167 11.5231C12.1993 11.5231 11.5002 11.6158 10.8194 11.801C10.1385 11.9865 9.49042 12.2597 8.875 12.6208C8.79431 12.6689 8.70604 12.7049 8.61021 12.729C8.51424 12.753 8.4209 12.765 8.33021 12.765C8.23937 12.765 8.14674 12.753 8.05229 12.729C7.95799 12.7049 7.87111 12.6689 7.79167 12.6208C7.17625 12.2597 6.52813 11.9865 5.84729 11.801C5.16646 11.6158 4.46736 11.5231 3.75 11.5231C3.31625 11.5231 2.89021 11.5594 2.47187 11.6321C2.05368 11.7047 1.64639 11.8212 1.25 11.9815C0.947639 12.1021 0.66375 12.0658 0.398333 11.8725C0.132778 11.6792 0 11.4121 0 11.0712ZM10.9935 8.29229V1.14979C10.9935 1.00201 11.0367 0.868539 11.1231 0.749372C11.2095 0.630067 11.3218 0.547705 11.46 0.502288L12.9375 0.0310383C13.0999 -0.0277117 13.2492 -0.00305921 13.3854 0.104996C13.5217 0.213052 13.5898 0.352427 13.5898 0.523121V7.66562C13.5898 7.8134 13.5466 7.94687 13.4602 8.06604C13.3738 8.18534 13.2615 8.2677 13.1233 8.31312L11.6458 8.78437C11.4835 8.84312 11.3342 8.81847 11.1979 8.71041C11.0617 8.60236 10.9935 8.46298 10.9935 8.29229Z" fill="var(--fill-0, #1C1B1F)"/>
</svg>
