<svg preserveAspectRatio="none" width="100%" height="100%" overflow="visible" style="display: block;" viewBox="0 0 13.3333 14.8396" fill="none" xmlns="http://www.w3.org/2000/svg">
<path id="package_2" d="M6.25 13.8477V7.65854L0.833333 4.52229V10.4229C0.833333 10.5085 0.854722 10.5886 0.8975 10.6633C0.940139 10.7382 1.00424 10.8023 1.08979 10.8556L6.25 13.8477ZM7.08333 13.8477L12.2435 10.8556C12.3291 10.8023 12.3932 10.7382 12.4358 10.6633C12.4786 10.5886 12.5 10.5085 12.5 10.4229V4.52229L7.08333 7.65854V13.8477ZM5.99354 14.6585L0.673125 11.5929C0.462569 11.4722 0.297778 11.3082 0.17875 11.1008C0.0595834 10.8936 0 10.6692 0 10.4277V4.41188C0 4.17035 0.0595834 3.94597 0.17875 3.73875C0.297778 3.53139 0.462569 3.36736 0.673125 3.24667L5.99354 0.181042C6.2041 0.0603473 6.42847 0 6.66667 0C6.90486 0 7.12924 0.0603473 7.33979 0.181042L12.6602 3.24667C12.8708 3.36736 13.0356 3.53139 13.1546 3.73875C13.2737 3.94597 13.3333 4.17035 13.3333 4.41188V10.4277C13.3333 10.6692 13.2737 10.8936 13.1546 11.1008C13.0356 11.3082 12.8708 11.4722 12.6602 11.5929L7.33979 14.6585C7.12924 14.7792 6.90486 14.8396 6.66667 14.8396C6.42847 14.8396 6.2041 14.7792 5.99354 14.6585ZM9.75958 5.14896L12.0208 3.84771L6.92312 0.897292C6.83757 0.843959 6.75208 0.817293 6.66667 0.817293C6.58125 0.817293 6.49576 0.843959 6.41021 0.897292L4.41667 2.04313L9.75958 5.14896ZM6.66667 6.94229L8.91667 5.63604L3.5625 2.54167L1.3125 3.84771L6.66667 6.94229Z" fill="var(--fill-0, #35313C)"/>
</svg>
