<svg preserveAspectRatio="none" width="100%" height="100%" overflow="visible" style="display: block;" viewBox="0 0 21.3333 24.513" fill="none" xmlns="http://www.w3.org/2000/svg">
<path id="headset_mic" d="M2.154 21.3333C1.54022 21.3333 1.02778 21.1278 0.616667 20.7167C0.205556 20.3056 0 19.7931 0 19.1793V10.6667C0 9.20111 0.278222 7.81978 0.834667 6.52267C1.39111 5.22556 2.15389 4.09233 3.123 3.123C4.09233 2.15389 5.22556 1.39111 6.52267 0.834666C7.81978 0.278221 9.20111 0 10.6667 0C12.1322 0 13.5136 0.278221 14.8107 0.834666C16.1078 1.39111 17.241 2.15389 18.2103 3.123C19.1794 4.09233 19.9422 5.22556 20.4987 6.52267C21.0551 7.81978 21.3333 9.20111 21.3333 10.6667V22.359C21.3333 22.9726 21.1278 23.4849 20.7167 23.896C20.3056 24.3073 19.7931 24.513 19.1793 24.513H11.3333C11.1444 24.513 10.9861 24.449 10.8583 24.321C10.7306 24.193 10.6667 24.0344 10.6667 23.8453C10.6667 23.6562 10.7306 23.498 10.8583 23.3707C10.9861 23.2431 11.1444 23.1793 11.3333 23.1793H19.1793C19.4187 23.1793 19.6153 23.1024 19.7693 22.9487C19.9231 22.7949 20 22.5983 20 22.359V21.3333H18.0513C17.4589 21.3333 16.9518 21.1224 16.53 20.7007C16.1082 20.2789 15.8973 19.7718 15.8973 19.1793V15.282C15.8973 14.6898 16.1082 14.1828 16.53 13.761C16.9518 13.3392 17.4589 13.1283 18.0513 13.1283H20V10.6667C20 8.08889 19.0889 5.88889 17.2667 4.06667C15.4444 2.24444 13.2444 1.33333 10.6667 1.33333C8.08889 1.33333 5.88889 2.24444 4.06667 4.06667C2.24444 5.88889 1.33333 8.08889 1.33333 10.6667V13.1283H3.282C3.87444 13.1283 4.38156 13.3392 4.80333 13.761C5.22511 14.1828 5.436 14.6898 5.436 15.282V19.1793C5.436 19.7718 5.22511 20.2789 4.80333 20.7007C4.38156 21.1224 3.87444 21.3333 3.282 21.3333H2.154Z" fill="var(--fill-0, white)"/>
</svg>
