<svg preserveAspectRatio="none" width="100%" height="100%" overflow="visible" style="display: block;" viewBox="0 0 24 20.2873" fill="none" xmlns="http://www.w3.org/2000/svg">
<path id="credit_score" d="M2.154 18.6667C1.54022 18.6667 1.02778 18.4611 0.616667 18.05C0.205556 17.6389 0 17.1264 0 16.5127V2.154C0 1.54022 0.205556 1.02778 0.616667 0.616667C1.02778 0.205556 1.54022 0 2.154 0H21.846C22.4598 0 22.9722 0.205556 23.3833 0.616667C23.7944 1.02778 24 1.54022 24 2.154V7.43833C24 7.66411 23.9201 7.85689 23.7603 8.01667C23.6006 8.17644 23.4078 8.25633 23.182 8.25633C22.6351 8.25633 22.1249 8.36022 21.6513 8.568C21.1778 8.77556 20.7504 9.07 20.3693 9.45133L15.523 14.3307L14.446 13.236C13.6853 12.4753 12.7777 12.0962 11.723 12.0987C10.6683 12.1013 9.76067 12.483 9 13.2437C8.35733 13.8863 7.98856 14.6243 7.89367 15.4577C7.79878 16.291 7.94533 17.0709 8.33333 17.7973C8.44956 17.9907 8.45511 18.1839 8.35 18.377C8.24489 18.5701 8.09578 18.6667 7.90267 18.6667H2.154ZM1.33333 5.077V8.25633H22.6667V5.077H1.33333ZM15.523 18.8153L22.6283 11.7103C22.7581 11.5803 22.9123 11.5123 23.091 11.5063C23.2697 11.5003 23.4324 11.5709 23.5793 11.718C23.7213 11.8649 23.7936 12.0221 23.796 12.1897C23.7987 12.3572 23.7264 12.5146 23.5793 12.6617L16.277 19.964C16.1608 20.0802 16.042 20.1631 15.9207 20.2127C15.7991 20.2624 15.6666 20.2873 15.523 20.2873C15.3966 20.2873 15.2683 20.2624 15.1383 20.2127C15.0086 20.1631 14.8856 20.0802 14.7693 19.964L11.2513 16.446C11.1264 16.3213 11.0584 16.1697 11.0473 15.991C11.0362 15.8123 11.1042 15.6496 11.2513 15.5027C11.3931 15.3607 11.5491 15.2897 11.7193 15.2897C11.8893 15.2897 12.0479 15.3607 12.195 15.5027L15.523 18.8153Z" fill="var(--fill-0, #119C72)"/>
</svg>
