<svg preserveAspectRatio="none" width="100%" height="100%" overflow="visible" style="display: block;" viewBox="0 0 16.6667 15.8333" fill="none" xmlns="http://www.w3.org/2000/svg">
<g id="Union">
<path fill-rule="evenodd" clip-rule="evenodd" d="M7.87516 1.66667C8.12816 1.66675 8.33325 1.87183 8.33333 2.12484V6.2085C8.33325 6.46149 8.12817 6.66658 7.87516 6.66667H5.43945L5.16195 7.5H9.58333V5C9.58333 4.30964 10.143 3.75 10.8333 3.75H14.1667C14.857 3.75 15.4167 4.30964 15.4167 5V7.5H15.7503C16.2563 7.50018 16.6665 7.91034 16.6667 8.41634V9.08366C16.6665 9.58966 16.2563 9.99982 15.7503 10H14.9959C14.9984 10.0274 15 10.055 15 10.083V14.917C14.9998 15.423 14.5897 15.8332 14.0837 15.8333H2.58301C2.07701 15.8332 1.66684 15.423 1.66667 14.917V10.083C1.66668 10.055 1.66827 10.0274 1.67074 10H0.916341C0.410341 9.99982 0.000175825 9.58966 0 9.08366V8.41634C0.000175855 7.91034 0.410338 7.50018 0.916341 7.5H2.61637L2.89388 6.66667H0.874837C0.621835 6.66658 0.416755 6.4615 0.416667 6.2085V2.12484C0.416755 1.87184 0.621833 1.66675 0.874837 1.66667H7.87516ZM2.58301 10C2.53724 10.0002 2.50017 10.0372 2.5 10.083V14.917L2.50651 14.9487C2.51904 14.9787 2.5485 14.9999 2.58301 15H14.0837L14.1154 14.9935C14.1356 14.985 14.1517 14.9689 14.1602 14.9487L14.1667 14.917V10.083C14.1665 10.0485 14.1454 10.019 14.1154 10.0065L14.0837 10H2.58301ZM0.916341 8.33333C0.870576 8.33351 0.833508 8.37058 0.833333 8.41634V9.08366L0.839844 9.1154C0.852376 9.14539 0.881836 9.16653 0.916341 9.16667H15.7503L15.7821 9.16016C15.8023 9.15171 15.8184 9.1356 15.8268 9.1154L15.8333 9.08366V8.41634C15.8332 8.38184 15.8121 8.35238 15.7821 8.33984L15.7503 8.33333H0.916341ZM3.49528 7.5H4.28304L4.83887 5.83333H4.05029L3.49528 7.5ZM10.8333 4.58333C10.6032 4.58333 10.4167 4.76988 10.4167 5V7.5H14.5833V5C14.5833 4.76988 14.3968 4.58333 14.1667 4.58333H10.8333ZM1.25 5.83333H3.1722L3.34554 5.31331L3.37402 5.24658C3.45201 5.09694 3.60742 5 3.78011 5H5.35889L5.41667 5.00326C5.69815 5.03815 5.88605 5.32492 5.79346 5.60303L5.71696 5.83333H7.5V2.5H1.25V5.83333Z" fill="var(--fill-0, #CFFFF0)"/>
<path fill-rule="evenodd" clip-rule="evenodd" d="M12.5 0C13.4205 0 14.1667 0.746192 14.1667 1.66667C14.1667 2.58714 13.4205 3.33333 12.5 3.33333C11.5795 3.33333 10.8333 2.58714 10.8333 1.66667C10.8333 0.746192 11.5795 0 12.5 0ZM12.5 0.833333C12.0398 0.833333 11.6667 1.20643 11.6667 1.66667C11.6667 2.1269 12.0398 2.5 12.5 2.5C12.9602 2.5 13.3333 2.1269 13.3333 1.66667C13.3333 1.20643 12.9602 0.833333 12.5 0.833333Z" fill="var(--fill-0, #CFFFF0)"/>
</g>
</svg>
