<svg preserveAspectRatio="none" width="100%" height="100%" overflow="visible" style="display: block;" viewBox="0 0 25.3333 26.6667" fill="none" xmlns="http://www.w3.org/2000/svg">
<path id="edit_document" d="M2.66667 26.6667C1.93333 26.6667 1.30556 26.4056 0.783333 25.8833C0.261111 25.3611 0 24.7333 0 24V2.66667C0 1.93333 0.261111 1.30556 0.783333 0.783333C1.30556 0.261111 1.93333 0 2.66667 0H12.2333C12.5889 0 12.9278 0.0666667 13.25 0.2C13.5722 0.333333 13.8556 0.522222 14.1 0.766667L20.5667 7.23333C20.8111 7.47778 21 7.76111 21.1333 8.08333C21.2667 8.40556 21.3333 8.74444 21.3333 9.1V11.2C21.3333 11.4444 21.2611 11.6556 21.1167 11.8333C20.9722 12.0111 20.7889 12.1444 20.5667 12.2333C20.2111 12.3667 19.8722 12.5389 19.55 12.75C19.2278 12.9611 18.9333 13.2 18.6667 13.4667L11.4667 20.6667C11.2222 20.9111 11.0278 21.1944 10.8833 21.5167C10.7389 21.8389 10.6667 22.1778 10.6667 22.5333V25.3333C10.6667 25.7111 10.5389 26.0278 10.2833 26.2833C10.0278 26.5389 9.71111 26.6667 9.33333 26.6667H2.66667ZM13.3333 25.3333V23.1333C13.3333 22.9556 13.3667 22.7833 13.4333 22.6167C13.5 22.45 13.6 22.3 13.7333 22.1667L20.7 15.2333C20.9 15.0333 21.1222 14.8889 21.3667 14.8C21.6111 14.7111 21.8556 14.6667 22.1 14.6667C22.3667 14.6667 22.6222 14.7167 22.8667 14.8167C23.1111 14.9167 23.3333 15.0667 23.5333 15.2667L24.7667 16.5C24.9444 16.7 25.0833 16.9222 25.1833 17.1667C25.2833 17.4111 25.3333 17.6556 25.3333 17.9C25.3333 18.1444 25.2889 18.3944 25.2 18.65C25.1111 18.9056 24.9667 19.1333 24.7667 19.3333L17.8333 26.2667C17.7 26.4 17.55 26.5 17.3833 26.5667C17.2167 26.6333 17.0444 26.6667 16.8667 26.6667H14.6667C14.2889 26.6667 13.9722 26.5389 13.7167 26.2833C13.4611 26.0278 13.3333 25.7111 13.3333 25.3333ZM22.1 19.2L23.3333 17.9L22.1 16.6667L20.8333 17.9333L22.1 19.2ZM13.3333 9.33333H18.6667L12 2.66667V8C12 8.37778 12.1278 8.69444 12.3833 8.95C12.6389 9.20556 12.9556 9.33333 13.3333 9.33333Z" fill="var(--fill-0, #119C72)"/>
</svg>
