<svg preserveAspectRatio="none" width="100%" height="100%" overflow="visible" style="display: block;" viewBox="0 0 21.3333 24" fill="none" xmlns="http://www.w3.org/2000/svg">
<path id="assignment_return" d="M8.818 14H14.4103C14.5992 14 14.7576 13.936 14.8853 13.808C15.0131 13.68 15.077 13.5214 15.077 13.3323C15.077 13.1432 15.0131 12.985 14.8853 12.8577C14.7576 12.7303 14.5992 12.6667 14.4103 12.6667H8.818L11.146 10.3383C11.2709 10.2137 11.3376 10.062 11.346 9.88333C11.3547 9.70467 11.2837 9.54 11.133 9.38933C10.9948 9.25111 10.8393 9.182 10.6667 9.182C10.494 9.182 10.3368 9.253 10.195 9.395L7.01033 12.5793C6.795 12.7949 6.68733 13.0462 6.68733 13.3333C6.68733 13.6204 6.795 13.8718 7.01033 14.0873L10.195 17.2717C10.3197 17.3966 10.4713 17.4646 10.65 17.4757C10.8287 17.4868 10.9933 17.417 11.144 17.2663C11.2822 17.1281 11.3513 16.9727 11.3513 16.8C11.3513 16.6273 11.2803 16.4701 11.1383 16.3283L8.818 14ZM2.154 24C1.56156 24 1.05444 23.7891 0.632667 23.3673C0.210889 22.9456 0 22.4384 0 21.846V4.82067C0 4.22822 0.210889 3.72111 0.632667 3.29933C1.05444 2.87755 1.56156 2.66667 2.154 2.66667H8.42067C8.29911 1.98622 8.46189 1.37167 8.909 0.823C9.35589 0.274333 9.946 0 10.6793 0C11.4127 0 12.0029 0.274333 12.45 0.823C12.8971 1.37167 13.0513 1.98622 12.9127 2.66667H19.1793C19.7718 2.66667 20.2789 2.87755 20.7007 3.29933C21.1224 3.72111 21.3333 4.22822 21.3333 4.82067V21.846C21.3333 22.4384 21.1224 22.9456 20.7007 23.3673C20.2789 23.7891 19.7718 24 19.1793 24H2.154ZM10.6667 3.25633C10.9556 3.25633 11.1944 3.16189 11.3833 2.973C11.5722 2.78411 11.6667 2.54522 11.6667 2.25633C11.6667 1.96744 11.5722 1.72856 11.3833 1.53967C11.1944 1.35078 10.9556 1.25633 10.6667 1.25633C10.3778 1.25633 10.1389 1.35078 9.95 1.53967C9.76111 1.72856 9.66667 1.96744 9.66667 2.25633C9.66667 2.54522 9.76111 2.78411 9.95 2.973C10.1389 3.16189 10.3778 3.25633 10.6667 3.25633Z" fill="var(--fill-0, #119C72)"/>
</svg>
