<svg preserveAspectRatio="none" width="100%" height="100%" overflow="visible" style="display: block;" viewBox="0 0 11.6667 11.0258" fill="none" xmlns="http://www.w3.org/2000/svg">
<path id="person_apron" d="M5.83333 5C5.14583 5 4.55729 4.75521 4.06771 4.26562C3.57813 3.77604 3.33333 3.1875 3.33333 2.5C3.33333 1.8125 3.57813 1.22396 4.06771 0.734375C4.55729 0.244792 5.14583 0 5.83333 0C6.52083 0 7.10938 0.244792 7.59896 0.734375C8.08854 1.22396 8.33333 1.8125 8.33333 2.5C8.33333 3.1875 8.08854 3.77604 7.59896 4.26562C7.10938 4.75521 6.52083 5 5.83333 5ZM0 10.1604V9.66042C0 9.30639 0.102014 8.98097 0.306042 8.68417C0.51007 8.38736 0.777708 8.15611 1.10896 7.99042C1.85688 7.63792 2.62632 7.36125 3.41729 7.16042C4.20826 6.95958 5.01465 6.85917 5.83646 6.85917C6.65813 6.85917 7.46347 6.95958 8.2525 7.16042C9.04139 7.36125 9.80979 7.63792 10.5577 7.99042C10.889 8.15611 11.1566 8.38736 11.3606 8.68417C11.5647 8.98097 11.6667 9.30639 11.6667 9.66042V10.1604C11.6667 10.405 11.5836 10.6103 11.4175 10.7765C11.2514 10.9427 11.046 11.0258 10.8013 11.0258H0.865417C0.620694 11.0258 0.415278 10.9427 0.249167 10.7765C0.0830557 10.6103 0 10.405 0 10.1604ZM5.83333 4.16667C6.29167 4.16667 6.68403 4.00347 7.01042 3.67708C7.33681 3.35069 7.5 2.95833 7.5 2.5C7.5 2.04167 7.33681 1.64931 7.01042 1.32292C6.68403 0.996528 6.29167 0.833333 5.83333 0.833333C5.375 0.833333 4.98264 0.996528 4.65625 1.32292C4.32986 1.64931 4.16667 2.04167 4.16667 2.5C4.16667 2.95833 4.32986 3.35069 4.65625 3.67708C4.98264 4.00347 5.375 4.16667 5.83333 4.16667ZM8.68583 8.13146V10.1925H10.8333V9.65396C10.8333 9.44771 10.7665 9.26611 10.6329 9.10917C10.4994 8.95208 10.3419 8.82278 10.1602 8.72125C9.92313 8.59944 9.6809 8.49076 9.43354 8.39521C9.18618 8.29951 8.93694 8.2116 8.68583 8.13146ZM3.81417 7.91833V8.9425H7.8525V7.91833C7.52139 7.84139 7.18618 7.78451 6.84688 7.74771C6.50771 7.7109 6.16854 7.6925 5.82938 7.6925C5.49007 7.6925 5.15215 7.7109 4.81563 7.74771C4.4791 7.78451 4.14528 7.84139 3.81417 7.91833ZM0.833333 10.1925H2.98083V8.13146C2.72972 8.2116 2.48049 8.29951 2.23313 8.39521C1.98576 8.49076 1.74354 8.59944 1.50646 8.72125C1.32479 8.82278 1.16722 8.95208 1.03375 9.10917C0.900139 9.26611 0.833333 9.44771 0.833333 9.65396V10.1925Z" fill="var(--fill-0, #CFFFF0)"/>
</svg>
