<svg preserveAspectRatio="none" width="100%" height="100%" overflow="visible" style="display: block;" viewBox="0 0 52 52" fill="none" xmlns="http://www.w3.org/2000/svg">
<g id="Frame 2071860965">
<g id="Vector">
<path d="M33.5295 42L21.6364 42V36.1818H30.1815L33.5295 42Z" fill="var(--fill-0, #1376BE)"/>
<path d="M21.6364 42H15.8182L15.8182 36.1818H21.6364V42Z" fill="var(--fill-0, #1376BE)"/>
<path d="M18.4159 10H24.5454V15.8182H21.784L18.4159 10Z" fill="#119C72"/>
<path d="M24.5454 10H30.3636V15.8182H24.5454V10Z" fill="#119C72"/>
<path d="M30.3636 10H36.1818V15.8182H30.3636V10Z" fill="#119C72"/>
<path d="M33.2727 27.4545H36.1818V33.2727H33.2727V27.4545Z" fill="#119C72"/>
<path d="M36.1818 10C39.3951 10 42 12.6049 42 15.8182H36.1818V10Z" fill="#119C72"/>
<path d="M15.8182 42C12.6049 42 10 39.3951 10 36.1818H15.8182L15.8182 42Z" fill="var(--fill-0, #1376BE)"/>
<path d="M36.1818 15.8182H42V21.6364H36.1818V15.8182Z" fill="#119C72"/>
<path d="M15.8182 36.1818H10V30.3636H15.8182V36.1818Z" fill="var(--fill-0, #1376BE)"/>
<path d="M36.1818 21.6364H42V27.4545H36.1818V21.6364Z" fill="#119C72"/>
<path d="M15.8182 30.3636H10V24.5455H15.8182V30.3636Z" fill="var(--fill-0, #1376BE)"/>
<path d="M36.1818 27.4545H42C42 30.6678 39.3951 33.2727 36.1818 33.2727V27.4545Z" fill="#119C72"/>
<path d="M15.8182 24.5455H10C10 21.3322 12.6049 18.7273 15.8182 18.7273V24.5455Z" fill="var(--fill-0, #1376BE)"/>
<path d="M28.4972 27.4545H33.2727V33.2727H31.847L28.4972 27.4545Z" fill="#119C72"/>
<path d="M21.6364 24.5455H15.8182V18.7273H21.6364V24.5455Z" fill="var(--fill-0, #1376BE)"/>
<path d="M27.4545 24.5455H21.6364V18.7273H27.4545V24.5455Z" fill="var(--fill-0, #1376BE)"/>
<path d="M33.2727 23.9636C33.2727 24.285 33.0122 24.5455 32.6909 24.5455H27.4545V18.7273H32.6909C33.0122 18.7273 33.2727 18.9878 33.2727 19.3091V23.9636Z" fill="var(--fill-0, #1376BE)"/>
<path d="M16.9818 24.5455C16.3392 24.5455 15.8182 25.0664 15.8182 25.7091L15.8182 24.5455H16.9818Z" fill="var(--fill-0, #1376BE)"/>
<path d="M15.8182 35.0182C15.8182 35.6608 16.3392 36.1818 16.9818 36.1818H15.8182L15.8182 35.0182Z" fill="var(--fill-0, #1376BE)"/>
<path d="M19.3091 27.4545H25.1386L28.4908 33.2727H19.3091C18.9878 33.2727 18.7273 33.0122 18.7273 32.6909V28.0364C18.7273 27.715 18.9878 27.4545 19.3091 27.4545Z" fill="#DD980A"/>
<path d="M35.0182 27.4545H36.1818V26.2909C36.1818 26.9336 35.6608 27.4545 35.0182 27.4545Z" fill="#119C72"/>
<path d="M36.1818 15.8182H35.0182C35.6608 15.8182 36.1818 16.3392 36.1818 16.9818V15.8182Z" fill="#119C72"/>
</g>
</g>
</svg>
