<svg preserveAspectRatio="none" width="100%" height="100%" overflow="visible" style="display: block;" viewBox="0 0 27.75 27.75" fill="none" xmlns="http://www.w3.org/2000/svg">
<path id="brightness_5" d="M9.474 24.375H5.79825C5.13175 24.375 4.56125 24.1378 4.08675 23.6633C3.61225 23.1888 3.375 22.6183 3.375 21.9518V18.276L0.68925 15.5711C0.45275 15.3289 0.27875 15.0619 0.16725 14.7701C0.05575 14.4786 0 14.182 0 13.8803C0 13.5788 0.05575 13.2804 0.16725 12.9851C0.27875 12.6899 0.45275 12.4211 0.68925 12.1789L3.375 9.474V5.79825C3.375 5.13175 3.61225 4.56125 4.08675 4.08675C4.56125 3.61225 5.13175 3.375 5.79825 3.375H9.474L12.1789 0.68925C12.4211 0.45275 12.6881 0.278751 12.9799 0.167251C13.2714 0.0557508 13.568 0 13.8698 0C14.1713 0 14.4696 0.0557508 14.7649 0.167251C15.0601 0.278751 15.3289 0.45275 15.5711 0.68925L18.276 3.375H21.9518C22.6183 3.375 23.1888 3.61225 23.6633 4.08675C24.1378 4.56125 24.375 5.13175 24.375 5.79825V9.474L27.0608 12.1789C27.2973 12.4211 27.4713 12.6881 27.5828 12.9799C27.6943 13.2714 27.75 13.568 27.75 13.8698C27.75 14.1713 27.6943 14.4696 27.5828 14.7649C27.4713 15.0601 27.2973 15.3289 27.0608 15.5711L24.375 18.276V21.9518C24.375 22.6183 24.1378 23.1888 23.6633 23.6633C23.1888 24.1378 22.6183 24.375 21.9518 24.375H18.276L15.5711 27.0608C15.3289 27.2973 15.0619 27.4713 14.7701 27.5828C14.4786 27.6943 14.182 27.75 13.8803 27.75C13.5788 27.75 13.2804 27.6943 12.9851 27.5828C12.6899 27.4713 12.4211 27.2973 12.1789 27.0608L9.474 24.375ZM13.875 20.2211C15.6308 20.2211 17.1274 19.6024 18.3649 18.3649C19.6024 17.1274 20.2211 15.6308 20.2211 13.875C20.2211 12.1192 19.6024 10.6226 18.3649 9.38513C17.1274 8.14763 15.6308 7.52888 13.875 7.52888C12.1192 7.52888 10.6226 8.14763 9.38512 9.38513C8.14762 10.6226 7.52887 12.1192 7.52887 13.875C7.52887 15.6308 8.14762 17.1274 9.38512 18.3649C10.6226 19.6024 12.1192 20.2211 13.875 20.2211ZM13.875 18.7211C12.5287 18.7211 11.3845 18.25 10.4422 17.3078C9.5 16.3655 9.02887 15.2213 9.02887 13.875C9.02887 12.5287 9.5 11.3845 10.4422 10.4423C11.3845 9.5 12.5287 9.02888 13.875 9.02888C15.2213 9.02888 16.3655 9.5 17.3077 10.4423C18.25 11.3845 18.7211 12.5287 18.7211 13.875C18.7211 15.2213 18.25 16.3655 17.3077 17.3078C16.3655 18.25 15.2213 18.7211 13.875 18.7211ZM10.1228 22.875L13.2116 25.9616C13.3846 26.1346 13.6058 26.2211 13.875 26.2211C14.1442 26.2211 14.3654 26.1346 14.5384 25.9616L17.6273 22.875H21.9518C22.221 22.875 22.4423 22.7885 22.6155 22.6155C22.7885 22.4423 22.875 22.221 22.875 21.9518V17.6273L25.9616 14.5384C26.1346 14.3654 26.2211 14.1442 26.2211 13.875C26.2211 13.6058 26.1346 13.3846 25.9616 13.2116L22.875 10.1228V5.79825C22.875 5.529 22.7885 5.30775 22.6155 5.1345C22.4423 4.9615 22.221 4.875 21.9518 4.875H17.6273L14.5384 1.78838C14.3654 1.61538 14.1442 1.52888 13.875 1.52888C13.6058 1.52888 13.3846 1.61538 13.2116 1.78838L10.1228 4.875H5.79825C5.529 4.875 5.30775 4.9615 5.1345 5.1345C4.9615 5.30775 4.875 5.529 4.875 5.79825V10.1228L1.78838 13.2116C1.61538 13.3846 1.52888 13.6058 1.52888 13.875C1.52888 14.1442 1.61538 14.3654 1.78838 14.5384L4.875 17.6273V21.9518C4.875 22.221 4.9615 22.4423 5.1345 22.6155C5.30775 22.7885 5.529 22.875 5.79825 22.875H10.1228Z" fill="var(--fill-0, #119C72)"/>
</svg>
