<svg preserveAspectRatio="none" width="100%" height="100%" overflow="visible" style="display: block;" viewBox="0 0 26.6667 20" fill="none" xmlns="http://www.w3.org/2000/svg">
<path id="room_service" d="M1.33333 20C0.955556 20 0.638889 19.8722 0.383333 19.6167C0.127778 19.3611 0 19.0444 0 18.6667C0 18.2889 0.127778 17.9722 0.383333 17.7167C0.638889 17.4611 0.955556 17.3333 1.33333 17.3333H25.3333C25.7111 17.3333 26.0278 17.4611 26.2833 17.7167C26.5389 17.9722 26.6667 18.2889 26.6667 18.6667C26.6667 19.0444 26.5389 19.3611 26.2833 19.6167C26.0278 19.8722 25.7111 20 25.3333 20H1.33333ZM1.33333 16V14.6667C1.33333 11.8222 2.20556 9.31111 3.95 7.13333C5.69444 4.95556 7.93333 3.57778 10.6667 3V2.66667C10.6667 1.93333 10.9278 1.30556 11.45 0.783333C11.9722 0.261111 12.6 0 13.3333 0C14.0667 0 14.6944 0.261111 15.2167 0.783333C15.7389 1.30556 16 1.93333 16 2.66667V3C18.7556 3.57778 21 4.95556 22.7333 7.13333C24.4667 9.31111 25.3333 11.8222 25.3333 14.6667V16H1.33333Z" fill="var(--fill-0, #119C72)"/>
</svg>
