<svg preserveAspectRatio="none" width="100%" height="100%" overflow="visible" style="display: block;" viewBox="0 0 236.948 236.948" fill="none" xmlns="http://www.w3.org/2000/svg">
<path id="donut" d="M149.243 4.06567C179.239 12.1327 204.867 31.6574 220.608 58.4351C236.349 85.2129 240.945 117.102 233.404 147.234C225.864 177.367 206.791 203.333 180.293 219.541C153.795 235.749 121.992 240.902 91.7318 233.89C61.4717 226.879 35.1755 208.264 18.506 182.054C1.83645 155.844 -3.87291 124.136 2.60735 93.7576C9.08762 63.3793 27.2391 36.7611 53.153 19.635C79.067 2.50897 110.67 -3.75494 141.157 2.19221L128.682 66.1473C114.962 63.4711 100.741 66.2899 89.0797 73.9966C77.4184 81.7033 69.2502 93.6815 66.3341 107.352C63.418 121.022 65.9872 135.291 73.4885 147.085C80.9898 158.88 92.8231 167.256 106.44 170.411C120.057 173.567 134.369 171.248 146.293 163.954C158.217 156.661 166.799 144.976 170.193 131.416C173.586 117.857 171.518 103.507 164.434 91.4566C157.351 79.4066 145.818 70.6205 132.32 66.9904L149.243 4.06567Z" fill="var(--fill-0, #92FFDE)"/>
</svg>
