<svg preserveAspectRatio="none" width="100%" height="100%" overflow="visible" style="display: block;" viewBox="0 0 11.6667 15" fill="none" xmlns="http://www.w3.org/2000/svg">
<path id="request_quote" d="M5.70521 11.875V12.4038C5.70521 12.485 5.73563 12.5561 5.79646 12.6171C5.85743 12.6779 5.92847 12.7083 6.00958 12.7083H6.20188C6.2916 12.7083 6.37014 12.6747 6.4375 12.6073C6.50486 12.5401 6.53854 12.4616 6.53854 12.3719V11.875H7.78854C7.9066 11.875 8.00556 11.8351 8.08542 11.7552C8.16528 11.6753 8.20521 11.5764 8.20521 11.4583V8.95833C8.20521 8.84028 8.16528 8.74132 8.08542 8.66146C8.00556 8.5816 7.9066 8.54167 7.78854 8.54167H4.87188V6.875H7.78854C7.9066 6.875 8.00556 6.835 8.08542 6.755C8.16528 6.675 8.20521 6.5759 8.20521 6.45771C8.20521 6.33951 8.16528 6.24062 8.08542 6.16104C8.00556 6.08146 7.9066 6.04167 7.78854 6.04167H6.53854V5.51292C6.53854 5.43167 6.50806 5.36056 6.44708 5.29958C6.38625 5.23875 6.31521 5.20833 6.23396 5.20833H6.04167C5.95194 5.20833 5.8734 5.24201 5.80604 5.30937C5.73882 5.3766 5.70521 5.45507 5.70521 5.54479V6.04167H4.45521C4.33715 6.04167 4.23819 6.0816 4.15833 6.16146C4.07847 6.24132 4.03854 6.34028 4.03854 6.45833V8.95833C4.03854 9.07639 4.07847 9.17535 4.15833 9.25521C4.23819 9.33507 4.33715 9.375 4.45521 9.375H7.37188V11.0417H4.45521C4.33715 11.0417 4.23819 11.0817 4.15833 11.1617C4.07847 11.2417 4.03854 11.3408 4.03854 11.459C4.03854 11.5772 4.07847 11.676 4.15833 11.7556C4.23819 11.8352 4.33715 11.875 4.45521 11.875H5.70521ZM1.34625 15C0.962639 15 0.642361 14.8715 0.385417 14.6146C0.128472 14.3576 0 14.0374 0 13.6538V1.34625C0 0.962639 0.128472 0.642361 0.385417 0.385417C0.642361 0.128472 0.962639 0 1.34625 0H8.10896L11.6667 3.55771V13.6538C11.6667 14.0374 11.5382 14.3576 11.2813 14.6146C11.0243 14.8715 10.704 15 10.3204 15H1.34625ZM1.34625 14.1667H10.3204C10.4488 14.1667 10.5663 14.1133 10.6731 14.0065C10.7799 13.8997 10.8333 13.7821 10.8333 13.6538V3.97438H8.36542C8.17472 3.97438 8.01486 3.90986 7.88583 3.78083C7.75681 3.65181 7.69229 3.49194 7.69229 3.30125V0.833333H1.34625C1.21792 0.833333 1.10035 0.886736 0.993542 0.993542C0.886736 1.10035 0.833333 1.21792 0.833333 1.34625V13.6538C0.833333 13.7821 0.886736 13.8997 0.993542 14.0065C1.10035 14.1133 1.21792 14.1667 1.34625 14.1667Z" fill="var(--fill-0, #35313C)"/>
</svg>
