<svg preserveAspectRatio="none" width="100%" height="100%" overflow="visible" style="display: block;" viewBox="0 0 15.0403 11.8449" fill="none" xmlns="http://www.w3.org/2000/svg">
<path id="table_restaurant" d="M0.907938 3.65578H14.1163L13.2959 0.835365H1.74919L0.907938 3.65578ZM11.6884 4.48911H3.34065L3.04731 6.76474H11.9929L11.6884 4.48911ZM1.59544 11.3883L2.52335 4.48911H0.556896C0.375368 4.48911 0.228771 4.41543 0.117104 4.26807C0.00543771 4.12057 -0.0263679 3.95766 0.0216877 3.77932L1.00085 0.397865C1.03502 0.270643 1.10023 0.170226 1.19648 0.0966145C1.29259 0.0228645 1.40578 -0.00866283 1.53606 0.00203161H13.5042C13.6345 0.00203161 13.7477 0.0389066 13.8438 0.112657C13.94 0.186268 14.0052 0.286685 14.0394 0.413907L15.0186 3.77932C15.0666 3.95766 15.0348 4.12057 14.9231 4.26807C14.8115 4.41543 14.6649 4.48911 14.4834 4.48911H12.5056L13.4288 11.3883C13.4459 11.5101 13.4146 11.6166 13.335 11.7079C13.2554 11.7993 13.1547 11.8449 13.0329 11.8449C12.9314 11.8449 12.8409 11.811 12.7613 11.7431C12.6817 11.6753 12.6334 11.5906 12.6163 11.4891L12.0938 7.59807H2.93044L2.40794 11.5052C2.39085 11.6067 2.34252 11.6887 2.26294 11.7512C2.18335 11.8137 2.0928 11.8449 1.99127 11.8449C1.86947 11.8449 1.76877 11.7993 1.68919 11.7079C1.6096 11.6166 1.57835 11.5101 1.59544 11.3883Z" fill="var(--fill-0, #35313C)"/>
</svg>
