<svg preserveAspectRatio="none" width="100%" height="100%" overflow="visible" style="display: block;" viewBox="0 0 26.6667 26.6667" fill="none" xmlns="http://www.w3.org/2000/svg">
<path id="paid" d="M12.1333 22.6667H14.4667V21C15.5778 20.8 16.5333 20.3667 17.3333 19.7C18.1333 19.0333 18.5333 18.0444 18.5333 16.7333C18.5333 15.8 18.2667 14.9444 17.7333 14.1667C17.2 13.3889 16.1333 12.7111 14.5333 12.1333C13.2 11.6889 12.2778 11.3 11.7667 10.9667C11.2556 10.6333 11 10.1778 11 9.6C11 9.02222 11.2056 8.56667 11.6167 8.23333C12.0278 7.9 12.6222 7.73333 13.4 7.73333C14.1111 7.73333 14.6667 7.90556 15.0667 8.25C15.4667 8.59444 15.7556 9.02222 15.9333 9.53333L18.0667 8.66667C17.8222 7.88889 17.3722 7.21111 16.7167 6.63333C16.0611 6.05556 15.3333 5.73333 14.5333 5.66667V4H12.2V5.66667C11.0889 5.91111 10.2222 6.4 9.6 7.13333C8.97778 7.86667 8.66667 8.68889 8.66667 9.6C8.66667 10.6444 8.97222 11.4889 9.58333 12.1333C10.1944 12.7778 11.1556 13.3333 12.4667 13.8C13.8667 14.3111 14.8389 14.7667 15.3833 15.1667C15.9278 15.5667 16.2 16.0889 16.2 16.7333C16.2 17.4667 15.9389 18.0056 15.4167 18.35C14.8944 18.6944 14.2667 18.8667 13.5333 18.8667C12.8 18.8667 12.15 18.6389 11.5833 18.1833C11.0167 17.7278 10.6 17.0444 10.3333 16.1333L8.13333 17C8.44444 18.0667 8.92778 18.9278 9.58333 19.5833C10.2389 20.2389 11.0889 20.6889 12.1333 20.9333V22.6667ZM13.3333 26.6667C11.4889 26.6667 9.75555 26.3167 8.13333 25.6167C6.51111 24.9167 5.1 23.9667 3.9 22.7667C2.7 21.5667 1.75 20.1556 1.05 18.5333C0.35 16.9111 0 15.1778 0 13.3333C0 11.4889 0.35 9.75555 1.05 8.13333C1.75 6.51111 2.7 5.1 3.9 3.9C5.1 2.7 6.51111 1.75 8.13333 1.05C9.75555 0.35 11.4889 0 13.3333 0C15.1778 0 16.9111 0.35 18.5333 1.05C20.1556 1.75 21.5667 2.7 22.7667 3.9C23.9667 5.1 24.9167 6.51111 25.6167 8.13333C26.3167 9.75555 26.6667 11.4889 26.6667 13.3333C26.6667 15.1778 26.3167 16.9111 25.6167 18.5333C24.9167 20.1556 23.9667 21.5667 22.7667 22.7667C21.5667 23.9667 20.1556 24.9167 18.5333 25.6167C16.9111 26.3167 15.1778 26.6667 13.3333 26.6667Z" fill="var(--fill-0, #119C72)"/>
</svg>
