<svg preserveAspectRatio="none" width="100%" height="100%" overflow="visible" style="display: block;" viewBox="0 0 16.6667 15.4167" fill="none" xmlns="http://www.w3.org/2000/svg">
<g id="Union">
<path fill-rule="evenodd" clip-rule="evenodd" d="M5.79183 3.75C6.27494 3.75009 6.66658 4.14171 6.66667 4.62484V6.2085C6.66658 6.69162 6.27495 7.08325 5.79183 7.08333H5V8.33333H7.91667V6.66667C7.91667 5.97631 8.47631 5.41667 9.16667 5.41667H14.5833C15.2737 5.41667 15.8333 5.97631 15.8333 6.66667V12.9207C16.3004 12.9628 16.6665 13.355 16.6667 13.833V14.5003C16.6665 15.0063 16.2563 15.4165 15.7503 15.4167H0.916341C0.44194 15.4165 0.0519079 15.0559 0.00488281 14.5939L0 14.5003V13.833C0.000166125 13.355 0.366245 12.9628 0.833333 12.9207V11.2915C0.83334 11.2543 0.836138 11.2176 0.840658 11.1816H0.83903L1.25 8.71663C1.28682 8.49573 1.47774 8.33348 1.70166 8.33333H2.5V7.08333H1.70817C1.22506 7.08325 0.833421 6.69162 0.833333 6.2085V4.62484C0.833421 4.14172 1.22505 3.75009 1.70817 3.75H5.79183ZM0.916341 13.75C0.870576 13.7502 0.833508 13.7872 0.833333 13.833V14.5003L0.839844 14.5321C0.852376 14.5621 0.881836 14.5832 0.916341 14.5833H15.7503L15.7821 14.5768C15.8023 14.5684 15.8184 14.5523 15.8268 14.5321L15.8333 14.5003V13.833C15.8332 13.7985 15.8121 13.769 15.7821 13.7565L15.7503 13.75H0.916341ZM9.16667 6.25C8.93655 6.25 8.75 6.43655 8.75 6.66667V8.33333H10.7983C11.0223 8.33348 11.2132 8.49573 11.25 8.71663L11.661 11.1816H11.6585C11.6631 11.2177 11.6667 11.2542 11.6667 11.2915V12.9167H15V6.66667C15 6.43655 14.8135 6.25 14.5833 6.25H9.16667ZM1.70817 11.25C1.68529 11.2501 1.66675 11.2686 1.66667 11.2915V12.9167H10.8333V11.2915C10.8333 11.2744 10.8229 11.2596 10.8081 11.2533L10.7918 11.25H1.70817ZM1.81152 10.4167H10.6885L10.4801 9.16667H2.01986L1.81152 10.4167ZM3.33333 8.33333H4.16667V7.08333H3.33333V8.33333ZM1.70817 4.58333C1.68529 4.58342 1.66675 4.60195 1.66667 4.62484V6.2085L1.66992 6.22477C1.67627 6.23958 1.69105 6.24993 1.70817 6.25H5.79183L5.80811 6.24675C5.81793 6.24253 5.82587 6.2346 5.83008 6.22477L5.83333 6.2085V4.62484C5.83327 4.60772 5.82292 4.59294 5.80811 4.58659L5.79183 4.58333H1.70817Z" fill="var(--fill-0, #CFFFF0)"/>
<path fill-rule="evenodd" clip-rule="evenodd" d="M11.875 0C13.1407 0 14.1667 1.02601 14.1667 2.29167C14.1667 3.55732 13.1407 4.58333 11.875 4.58333C10.6093 4.58333 9.58333 3.55732 9.58333 2.29167C9.58333 1.02601 10.6093 2.6844e-08 11.875 0ZM11.875 0.833333C11.0696 0.833333 10.4167 1.48625 10.4167 2.29167C10.4167 3.09708 11.0696 3.75 11.875 3.75C12.6804 3.75 13.3333 3.09708 13.3333 2.29167C13.3333 1.48625 12.6804 0.833333 11.875 0.833333Z" fill="var(--fill-0, #CFFFF0)"/>
</g>
</svg>
