<svg preserveAspectRatio="none" width="100%" height="100%" overflow="visible" style="display: block;" viewBox="0 0 13.3333 13.3333" fill="none" xmlns="http://www.w3.org/2000/svg">
<path id="dashboard" d="M8.58771 4.16667C8.39563 4.16667 8.23576 4.10285 8.10813 3.97521C7.98049 3.84757 7.91667 3.68438 7.91667 3.48563V0.681042C7.91667 0.482292 7.98167 0.319097 8.11167 0.191458C8.24153 0.0638195 8.4025 0 8.59458 0H12.6623C12.8544 0 13.0142 0.0638195 13.1419 0.191458C13.2695 0.319097 13.3333 0.482292 13.3333 0.681042V3.48563C13.3333 3.68438 13.2683 3.84757 13.1383 3.97521C13.0085 4.10285 12.8475 4.16667 12.6554 4.16667H8.58771ZM0.671042 6.66667C0.478958 6.66667 0.319097 6.60278 0.191458 6.475C0.0638195 6.34722 0 6.18889 0 6V0.666458C0 0.47743 0.065 0.319097 0.195 0.191458C0.324861 0.0638195 0.485833 0 0.677917 0H4.74563C4.93771 0 5.09757 0.0638891 5.22521 0.191667C5.35285 0.319445 5.41667 0.477778 5.41667 0.666667V6.00021C5.41667 6.18924 5.35167 6.34757 5.22167 6.47521C5.09181 6.60285 4.93083 6.66667 4.73875 6.66667H0.671042ZM8.58771 13.3333C8.39563 13.3333 8.23576 13.2694 8.10813 13.1417C7.98049 13.0139 7.91667 12.8556 7.91667 12.6667V7.33313C7.91667 7.1441 7.98167 6.98576 8.11167 6.85813C8.24153 6.73049 8.4025 6.66667 8.59458 6.66667H12.6623C12.8544 6.66667 13.0142 6.73056 13.1419 6.85833C13.2695 6.98611 13.3333 7.14444 13.3333 7.33333V12.6669C13.3333 12.8559 13.2683 13.0142 13.1383 13.1419C13.0085 13.2695 12.8475 13.3333 12.6554 13.3333H8.58771ZM0.671042 13.3333C0.478958 13.3333 0.319097 13.2695 0.191458 13.1419C0.0638195 13.0142 0 12.851 0 12.6523V9.84771C0 9.64896 0.065 9.48576 0.195 9.35813C0.324861 9.23049 0.485833 9.16667 0.677917 9.16667H4.74563C4.93771 9.16667 5.09757 9.23049 5.22521 9.35813C5.35285 9.48576 5.41667 9.64896 5.41667 9.84771V12.6523C5.41667 12.851 5.35167 13.0142 5.22167 13.1419C5.09181 13.2695 4.93083 13.3333 4.73875 13.3333H0.671042Z" fill="var(--fill-0, #119C72)"/>
</svg>
