<svg preserveAspectRatio="none" width="100%" height="100%" overflow="visible" style="display: block;" viewBox="0 0 236.948 232.911" fill="none" xmlns="http://www.w3.org/2000/svg">
<path id="donut" d="M149.137 1.03368e-07C175.613 7.09412 198.809 23.1488 214.775 45.4286C230.74 67.7083 238.487 94.8346 236.694 122.185C234.901 149.536 223.68 175.419 204.944 195.425C186.207 215.43 161.113 228.319 133.938 231.897C106.763 235.475 79.1878 229.519 55.9116 215.045C32.6353 200.571 15.0979 178.474 6.28739 152.519C-2.52311 126.564 -2.06154 98.3572 7.59347 72.7045C17.2485 47.0517 35.4995 25.5403 59.2369 11.8356L91.8172 68.2663C81.1354 74.4334 72.9224 84.1136 68.5776 95.6573C64.2329 107.201 64.0252 119.894 67.9899 131.574C71.9546 143.254 79.8465 153.197 90.3208 159.711C100.795 166.224 113.204 168.904 125.433 167.294C137.661 165.684 148.954 159.884 157.385 150.881C165.817 141.879 170.866 130.232 171.673 117.924C172.48 105.616 168.994 93.409 161.809 83.3831C154.625 73.3572 144.186 66.1326 132.272 62.9403L149.137 1.03368e-07Z" fill="var(--fill-0, #119C72)"/>
</svg>
