<svg preserveAspectRatio="none" width="100%" height="100%" overflow="visible" style="display: block;" viewBox="0 0 18.6667 24" fill="none" xmlns="http://www.w3.org/2000/svg">
<path id="request_quote" d="M9.12833 19V19.846C9.12833 19.976 9.177 20.0898 9.27433 20.1873C9.37189 20.2847 9.48555 20.3333 9.61533 20.3333H9.923C10.0666 20.3333 10.1922 20.2794 10.3 20.1717C10.4078 20.0641 10.4617 19.9386 10.4617 19.795V19H12.4617C12.6506 19 12.8089 18.9361 12.9367 18.8083C13.0644 18.6806 13.1283 18.5222 13.1283 18.3333V14.3333C13.1283 14.1444 13.0644 13.9861 12.9367 13.8583C12.8089 13.7306 12.6506 13.6667 12.4617 13.6667H7.795V11H12.4617C12.6506 11 12.8089 10.936 12.9367 10.808C13.0644 10.68 13.1283 10.5214 13.1283 10.3323C13.1283 10.1432 13.0644 9.985 12.9367 9.85767C12.8089 9.73033 12.6506 9.66667 12.4617 9.66667H10.4617V8.82067C10.4617 8.69067 10.4129 8.57689 10.3153 8.47933C10.218 8.382 10.1043 8.33333 9.97433 8.33333H9.66667C9.52311 8.33333 9.39744 8.38722 9.28967 8.495C9.18211 8.60256 9.12833 8.72811 9.12833 8.87167V9.66667H7.12833C6.93944 9.66667 6.78111 9.73056 6.65333 9.85833C6.52556 9.98611 6.46167 10.1444 6.46167 10.3333V14.3333C6.46167 14.5222 6.52556 14.6806 6.65333 14.8083C6.78111 14.9361 6.93944 15 7.12833 15H11.795V17.6667H7.12833C6.93944 17.6667 6.78111 17.7307 6.65333 17.8587C6.52556 17.9867 6.46167 18.1452 6.46167 18.3343C6.46167 18.5234 6.52556 18.6817 6.65333 18.809C6.78111 18.9363 6.93944 19 7.12833 19H9.12833ZM2.154 24C1.54022 24 1.02778 23.7944 0.616667 23.3833C0.205556 22.9722 0 22.4598 0 21.846V2.154C0 1.54022 0.205556 1.02778 0.616667 0.616667C1.02778 0.205556 1.54022 0 2.154 0H12.9743L18.6667 5.69233V21.846C18.6667 22.4598 18.4611 22.9722 18.05 23.3833C17.6389 23.7944 17.1264 24 16.5127 24H2.154ZM12.3077 1.33333V5.282C12.3077 5.58711 12.4109 5.84289 12.6173 6.04933C12.8238 6.25578 13.0796 6.359 13.3847 6.359H17.3333L12.3077 1.33333Z" fill="var(--fill-0, #119C72)"/>
</svg>
