<svg preserveAspectRatio="none" width="100%" height="100%" overflow="visible" style="display: block;" viewBox="0 0 359.076 167.785" fill="none" xmlns="http://www.w3.org/2000/svg">
<g id="Group 40">
<path id="Shadow" d="M18.3009 62.7882C10.4494 61.6479 2.87833 67.0641 0.0742189 69.9147V167.785H359V1.50039C354.514 13.2828 340.306 22.8798 333.763 26.2055C332.595 23.3549 328.435 18.889 321.145 23.83C313.854 28.7711 293.805 34.1239 284.691 36.1826C282.121 31.2733 275.298 22.8798 268.568 28.581C260.155 35.7075 244.733 41.4087 242.63 38.5581C240.527 35.7075 233.516 26.2055 224.403 31.9067C215.29 37.6079 203.372 43.7842 194.96 43.7842C186.547 43.7842 181.64 37.1328 177.434 33.332C173.228 29.5312 169.723 37.1328 166.218 39.9834C162.713 42.834 161.31 43.7842 158.506 41.4087C155.702 39.0332 155.001 39.5083 152.197 41.4087C149.393 43.3091 143.785 47.585 131.867 53.2862C119.95 58.9874 118.548 47.585 112.239 43.7842C105.929 39.9834 94.7129 46.6348 85.5995 51.3858C76.4862 56.1368 75.0841 55.6617 68.7749 56.6119C62.4656 57.5621 58.9605 52.336 54.0533 51.3858C49.1461 50.4356 44.94 56.1368 39.3317 62.7882C33.7235 69.4396 28.1153 64.2135 18.3009 62.7882Z" fill="url(#paint0_linear_8171_85954)"/>
<path id="Graph" d="M1.5 69.4396C4.31483 66.589 9.80373 61.648 17.6852 62.7882C27.5371 64.2135 33.1668 69.4396 38.7964 62.7882C44.4261 56.1368 48.6483 50.4356 53.5743 51.3858C58.5002 52.336 62.0187 57.5621 68.3521 56.6119C74.6855 55.6617 76.0929 56.1368 85.2411 51.3858C94.3892 46.6348 105.649 39.9834 111.982 43.7842C118.315 47.585 119.723 58.9874 131.686 53.2862C143.649 47.585 149.278 43.3091 152.093 41.4087C154.908 39.5083 155.612 39.0332 158.427 41.4087C161.241 43.7842 162.649 42.834 166.167 39.9834C169.686 37.1328 173.204 29.5312 177.427 33.332C181.649 37.1328 186.575 43.7842 195.019 43.7842C203.464 43.7842 215.427 37.6079 224.575 31.9067C233.723 26.2055 240.76 35.7075 242.871 38.5581C244.982 41.4087 260.464 35.7075 268.908 28.581C275.664 22.8798 282.513 31.2733 285.094 36.1826C294.242 34.1239 314.368 28.7711 321.686 23.83C329.005 18.889 333.18 23.3549 334.353 26.2055C340.921 22.8798 354.057 13.853 357.575 1.50039" stroke="var(--stroke-0, #119C72)" stroke-width="3" stroke-linecap="round" stroke-linejoin="round"/>
</g>
<defs>
<linearGradient id="paint0_linear_8171_85954" x1="179.537" y1="3.87588" x2="179.537" y2="105.072" gradientUnits="userSpaceOnUse">
<stop stop-color="#EEFFFA"/>
<stop offset="1" stop-color="#EEFFFA" stop-opacity="0"/>
</linearGradient>
</defs>
</svg>
