<svg preserveAspectRatio="none" width="100%" height="100%" overflow="visible" style="display: block;" viewBox="0 0 40 39.995" fill="none" xmlns="http://www.w3.org/2000/svg">
<g id="Group">
<path id="Vector" d="M31.916 0H8.07898C3.61453 0 0 3.61453 0 8.07898V31.921C0 36.3805 3.61453 39.995 8.07898 39.995H31.921C36.3805 39.995 40 36.3805 40 31.916V8.07898C39.995 3.61453 36.3805 0 31.916 0Z" fill="url(#paint0_linear_8171_86143)"/>
<g id="Group_2">
<path id="Vector_2" d="M19.8282 9.18994L20.6381 7.7901C21.138 6.91518 22.2529 6.62026 23.1278 7.12018C24.0027 7.6201 24.2977 8.73494 23.7977 9.60986L15.9937 23.1182H21.638C23.4677 23.1182 24.4926 25.268 23.6977 26.7578H7.14984C6.14 26.7578 5.33008 25.9478 5.33008 24.938C5.33008 23.9281 6.14 23.1182 7.14984 23.1182H11.7893L17.7286 12.8245L15.8738 9.60486C15.3739 8.72994 15.6688 7.6251 16.5438 7.11518C17.4187 6.61526 18.5235 6.91018 19.0334 7.7851L19.8282 9.18994ZM12.8091 28.6325L11.0594 31.6671C10.5595 32.5421 9.44461 32.837 8.56969 32.3371C7.69477 31.8371 7.39984 30.7223 7.89977 29.8474L9.19961 27.5977C10.6694 27.1428 11.8642 27.4927 12.8091 28.6325Z" fill="var(--fill-0, white)"/>
<path id="Vector_3" d="M27.8765 23.1275H32.6109C33.6207 23.1275 34.4306 23.9374 34.4306 24.9472C34.4306 25.9571 33.6207 26.767 32.6109 26.767H29.9812L31.7559 29.8466C32.2559 30.7215 31.9609 31.8264 31.086 32.3363C30.2111 32.8362 29.1062 32.5413 28.5963 31.6664C25.6067 26.482 23.3619 22.6026 21.8722 20.0179C20.3473 17.3882 21.4373 14.7485 22.5121 13.8537C23.707 15.9034 25.4918 18.998 27.8765 23.1275Z" fill="var(--fill-0, white)"/>
</g>
</g>
<defs>
<linearGradient id="paint0_linear_8171_86143" x1="20" y1="0" x2="20" y2="39.995" gradientUnits="userSpaceOnUse">
<stop stop-color="#00BFFC"/>
<stop offset="1" stop-color="#0073F6"/>
</linearGradient>
</defs>
</svg>
