<svg preserveAspectRatio="none" width="100%" height="100%" overflow="visible" style="display: block;" viewBox="0 0 236.948 232.911" fill="none" xmlns="http://www.w3.org/2000/svg">
<path id="donut" d="M149.137 1.03368e-07C171.262 5.92828 191.194 18.1429 206.519 35.1652C221.845 52.1874 231.908 73.2874 235.49 95.9107C239.072 118.534 236.019 141.71 226.701 162.634C217.382 183.558 202.198 201.333 182.987 213.805C163.776 226.278 141.361 232.914 118.456 232.911C95.5506 232.907 73.1376 226.264 53.9301 213.785C34.7226 201.307 19.5442 183.528 10.2323 162.601C0.920484 141.674 -2.12546 118.497 1.46323 95.8748L65.8191 106.084C64.2042 116.264 65.5748 126.694 69.7652 136.111C73.9555 145.528 80.7858 153.528 89.4292 159.144C98.0725 164.759 108.158 167.748 118.466 167.75C128.773 167.752 138.86 164.765 147.505 159.153C156.15 153.54 162.983 145.542 167.176 136.126C171.369 126.71 172.743 116.281 171.131 106.1C169.519 95.9196 164.991 86.4246 158.094 78.7646C151.198 71.1046 142.228 65.608 132.272 62.9403L149.137 1.03368e-07Z" fill="var(--fill-0, #007350)"/>
</svg>
